<svg xmlns="http://www.w3.org/2000/svg" viewBox="3.809 20.06 88.383 55.881" fill="#231f20">
  <path d="m92.063 51.813-6.376-27.837a5.048 5.048 0 0 0-6.041-3.789l-5.124 1.174a5.048 5.048 0 0 0-3.789 6.041l.128.559-1.98.861c-1.58.687-3.236.592-4.789-.275-1.551-.867-2.928-1.675-4.143-2.387-5.679-3.332-8.807-5.167-13.544-3.396-1.331.498-2.653 1.471-4.011 2.753h-17.06a5.05 5.05 0 0 0-3.858-4.156l-5.124-1.174a5.048 5.048 0 0 0-6.041 3.789L3.937 51.813c-.3 1.309-.07 2.66.647 3.803a5.009 5.009 0 0 0 3.142 2.238l5.124 1.174a5.024 5.024 0 0 0 3.803-.647 5.003 5.003 0 0 0 2.009-2.407l18.404 18.198a6.015 6.015 0 0 0 4.284 1.769h.001a6.016 6.016 0 0 0 4.284-1.77 6.009 6.009 0 0 0 1.426-2.259l1.885 1.885a6.015 6.015 0 0 0 4.284 1.769h.001a6.016 6.016 0 0 0 4.284-1.77 6.008 6.008 0 0 0 1.436-2.287 6.013 6.013 0 0 0 3.858 1.381h.001a6.016 6.016 0 0 0 4.284-1.77 6.015 6.015 0 0 0 1.769-4.284c0-.2-.01-.399-.028-.596a6.002 6.002 0 0 0 3.876-1.756A6.06 6.06 0 0 0 74.3 58.72l3.668-1.619c.371.501.836.934 1.381 1.276a5.015 5.015 0 0 0 3.803.647l5.124-1.174a5.005 5.005 0 0 0 3.142-2.238 5.002 5.002 0 0 0 .645-3.799zM47.615 25.997c3.052-1.141 4.974-.154 10.588 3.14 1.23.721 2.623 1.539 4.206 2.424 2.493 1.392 5.281 1.544 7.85.427l1.386-.603L76.79 53.85l-4.268 1.884-15.725-15.727a8.937 8.937 0 0 0-11.413-1.029c-5.443 3.769-9.041 5.191-12.488 2.105 2.497-2.324 4.825-5.08 6.916-7.557 2.927-3.466 5.692-6.74 7.803-7.529zM14.818 55.456c-.362.227-.787.3-1.198.206l-5.124-1.174a1.582 1.582 0 0 1-.989-.707 1.578 1.578 0 0 1-.206-1.198l6.376-27.837a1.592 1.592 0 0 1 1.905-1.195l5.124 1.174a1.593 1.593 0 0 1 1.195 1.905l-6.376 27.837a1.577 1.577 0 0 1-.707.989zm55.45 6.59a2.586 2.586 0 0 1-1.843.758c-.7 0-1.354-.269-1.843-.758l-12.26-12.261a1.726 1.726 0 0 0-2.441 2.441l12.77 12.77c.489.489.758 1.143.758 1.842a2.586 2.586 0 0 1-2.601 2.601 2.583 2.583 0 0 1-1.842-.758L47.777 55.493a1.726 1.726 0 0 0-2.441 2.441l9.782 9.782c.461.483.714 1.119.714 1.798a2.586 2.586 0 0 1-2.601 2.601 2.585 2.585 0 0 1-1.842-.758l-10.71-10.71a1.726 1.726 0 0 0-2.441 2.441l4.993 4.993a2.59 2.59 0 0 1 .723 1.807 2.586 2.586 0 0 1-2.601 2.601 2.59 2.59 0 0 1-1.849-.765L19.618 52.063l5.289-23.094h14.252c-.646.745-1.306 1.526-1.985 2.331-2.497 2.956-5.078 6.014-7.87 8.354a1.725 1.725 0 0 0-.217 2.427c2.54 3.051 5.244 4.12 7.842 4.12 4.089 0 7.915-2.649 10.421-4.384 2.218-1.536 5.099-1.276 7.006.631L70.268 58.36a2.61 2.61 0 0 1 0 3.686zm18.224-8.264a1.577 1.577 0 0 1-.989.707l-5.124 1.174c-.411.094-.836.02-1.198-.206a1.577 1.577 0 0 1-.707-.988L74.099 26.63a1.592 1.592 0 0 1 1.195-1.905l5.124-1.174a1.593 1.593 0 0 1 1.905 1.195l6.376 27.838c.093.411.02.836-.207 1.198z"/>
</svg>
