<svg xmlns="http://www.w3.org/2000/svg" viewBox="1.045 13.782 509.867 484.484">
  <path d="M509.65 493.91c.172-.277.426-.535.555-.832.105-.215.086-.492.172-.703.296-.852.511-1.727.535-2.625v-.043l-.004-280.75c0-.277-.172-.512-.192-.79-.086-.894-.277-1.75-.66-2.6a7.345 7.345 0 0 0-.77-1.325c-.214-.297-.296-.66-.554-.937-.297-.32-.684-.47-1.004-.747-.258-.214-.383-.554-.683-.746l-29.121-19.05 19.777-62.294c1.406-4.457-1.004-9.214-5.442-10.688L328.91 55.425l-11.266-35.69a8.402 8.402 0 0 0-4.265-5.036 8.749 8.749 0 0 0-6.594-.492L256.16 31.211l-51.043-16.984a8.57 8.57 0 0 0-6.57.469 8.623 8.623 0 0 0-4.266 5.011l-11.332 35.777-163.26 54.293c-4.461 1.45-6.871 6.23-5.442 10.688l19.777 62.293-29.12 19.051c-.297.192-.426.536-.684.746-.32.278-.703.43-1 .75-.258.278-.34.641-.555.961-.3.422-.555.809-.746 1.278-.406.851-.598 1.75-.684 2.687-.023.258-.19.469-.19.727v280.75c0 .086.042.172.042.258 0 .129.063.234.063.363.32 4.414 3.925 7.937 8.406 7.937h492.8c2.219 0 4.222-.894 5.738-2.304.02-.02.043 0 .063-.02.02-.02.02-.02.02-.043.64-.582 1.065-1.285 1.472-1.988zM18.11 228.07l89.812 80.32c.148.148.297.277.469.406l30.465 27.266-120.75 131.67zm139.07 113.26c.062-.062.148-.086.215-.148.062-.063.062-.149.129-.215l55.082-60.074c11.285-12.332 26.71-19.113 43.434-19.113 16.727 0 32.172 6.785 43.457 19.113l54.828 59.797c.105.148.148.32.277.468.129.149.32.192.469.34l128.02 139.65-454.12.004zm215.98-5.312 120.68-107.93-.004 239.53zm115.26-125.99-26.73 23.914 10.879-34.281zM303.99 33.148l4.93 15.617-25.812-8.598zm-96.043 0 270.95 90.199-42.199 132.95-75.07 67.156-49.559-54.06c-14.379-15.66-34.793-24.64-56.043-24.64h-.02c-21.246 0-41.664 8.98-56 24.64l-49.62 54.103-26.88-24.043zm-31.383 42.434-67.031 211.39-34.281-30.656-42.172-133.01zm-126.31 158.36-26.73-23.914 15.852-10.367z"/>
  <path d="M297.32 232.77c14.102 0 25.238-2.516 36.055-8.191 4.16-2.2 5.781-7.34 3.606-11.52-2.2-4.16-7.317-5.762-11.52-3.606-8.383 4.375-16.79 6.25-28.137 6.25-27.2 0-46.23-19.668-46.23-47.852 0-16.426 5.546-31.637 15.594-42.836 10.477-11.5 25.3-17.812 41.684-17.812 26.305 0 43.988 17.578 43.988 43.734 0 22.613-11.926 34.453-23.68 34.453-1.56 0-2.86-.406-3.668-1.324-1.11-1.172-1.43-3.07-1.493-4.715l16.684-44.414c1.602-4.223-.703-9.11-4.843-10.945-6.422-2.836-14.551-4.414-22.871-4.414-14.188 0-27.348 5.523-37.055 15.551-9.11 9.45-14.336 22.508-14.336 35.82 0 20.672 14.23 31.508 28.309 31.508 8.554 0 16.02-2.582 22.355-7.617.214.277.449.512.66.746 3.902 4.414 9.664 6.848 16.258 6.848 20.246 0 40.77-17.684 40.77-51.52 0-35.797-25.13-60.801-61.078-60.801-21.246 0-40.535 8.296-54.355 23.445-12.887 14.379-19.988 33.664-19.988 54.273-.004 37.629 26.62 64.938 63.293 64.938zm9.813-58.348c-4.692 7.574-10.2 10.965-17.75 10.988-5.59 0-11.2-4.457-11.2-14.441 0-8.937 3.477-17.684 9.516-23.957 6.57-6.762 15.125-10.348 24.79-10.348 2.901 0 5.8.277 8.534.79z"/>
</svg>
