<svg xmlns="http://www.w3.org/2000/svg" viewBox="84.682 32.719 342.836 446.569">
  <path d="M389.12 202.34c0 2.664.41 5.121.41 7.938s0 5.12-.41 7.937h38.398V202.34zM118.68 330.19l11.266 11.266 27.137-27.137a140.613 140.613 0 0 1-11.266-11.262zm223.95-223.95c3.965 3.54 7.727 7.3 11.266 11.266l27.137-27.137-11.266-11.266zm-84.84-35.123V32.719h-15.926v38.398c2.664 0 5.121-.41 7.988-.41 2.868 0 5.325.258 7.938.41zm84.84 243.203 27.137 27.137 11.266-11.266-27.137-27.137v.004a140.58 140.58 0 0 1-11.266 11.262zM157.08 106.24l-27.137-27.137-11.266 11.266 27.137 27.137c3.54-3.965 7.3-7.727 11.266-11.266z"/>
  <path d="M370.84 210.28a120.935 120.935 0 0 0-233.114-45.207 89.86 89.86 0 0 0-50.688 39.73l-2.356 3.992 2.305 3.992v.004a89.606 89.606 0 0 0 49.922 40.191 121.04 121.04 0 0 0 41.047 54.371 121.081 121.081 0 0 0 63.91 23.605v7.63h-19.098v140.7h54.172v-140.7h-19.148v-7.731a121.057 121.057 0 0 0 80.31-37.988 121.019 121.019 0 0 0 32.737-82.59zm-239.66 23.195a75.301 75.301 0 0 1-28.008-24.68 70.432 70.432 0 0 1 7.68-9.215 72.706 72.706 0 0 1 20.84-15.258 118.77 118.77 0 0 0-.563 48.945zm129.95 229.89h-22.426v-108.85h22.426zm-103.32-202.6a104.266 104.266 0 0 1-12.441-40.141 59.696 59.696 0 0 0 48.98 26.535 59.707 59.707 0 0 0 49.559-25.438 59.69 59.69 0 0 0 6.984-55.266 122.842 122.842 0 0 1 47.258 43.773 122.874 122.874 0 0 1-103.17 56.629h-.82.004a121.332 121.332 0 0 1-36.355-6.094zm36.25 22.016h.973c49.09-.152 94.465-26.168 119.4-68.453l2.355-3.992-2.305-3.992v-.004c-24.512-42.926-69.969-69.61-119.4-70.094h-.921.003c-6.738.03-13.465.562-20.125 1.59a105.07 105.07 0 0 1 74.84-32.638 105.049 105.049 0 0 1 75.605 30.81 105.061 105.061 0 0 1-78.394 179.231 105.063 105.063 0 0 1-73.945-34.606 136.587 136.587 0 0 0 21.914 2.149z"/>
  <path d="m328.45 254.11-12.289-10.238a157.552 157.552 0 0 1-42.344 35.84l7.785 14.078a173.577 173.577 0 0 0 46.848-39.68z"/>
</svg>
