<svg xmlns="http://www.w3.org/2000/svg" viewBox="-0.001 78.022 511.998 355.977">
  <path d="M399.6 313.96a41.11 41.11 0 0 0 10.438-1.36c4.273-1.124 6.82-5.5 5.695-9.773s-5.5-6.82-9.773-5.695a24.776 24.776 0 0 1-30.238-17.25 8 8 0 0 0-15.445 4.164A40.71 40.71 0 0 0 399.6 313.96zm-62.13-23.58a8.001 8.001 0 0 0-5.059 10.121l16 48a8.001 8.001 0 0 0 15.18-5.062l-16-48a7.98 7.98 0 0 0-10.121-5.059zm-53.12 12.39a34.246 34.246 0 0 1-32.937 15.531c-.383-.043-.734-.082-1.094-.136a33.075 33.075 0 0 1-1.828 10.594l61.18-17.035h.004a13.389 13.389 0 0 0 9.902-11.855c.594-8.625-6.683-13.656-13.723-14.68l-15.234-2.176a38.265 38.265 0 0 1-3.898 15.602l6.86.98-8.813 2.453c-.149.239-.266.489-.418.723z"/>
  <path d="M501.87 263.58c-11.477 0-19.879.23-26.629.418a114.61 114.61 0 0 1-32.359-1.977 63.951 63.951 0 0 1-25.883-13.922 195.144 195.144 0 0 0-19.637-16.66 7.68 7.68 0 0 0-.54-.332l-27.046-15.273a32.561 32.561 0 0 1-10.742-10.738c-1.2-1.937-2.523-4.625-3.926-7.472-4.719-9.563-9.172-18.594-17.566-19.551a12.546 12.546 0 0 0-11.363 5.187 34.846 34.846 0 0 0-6.082 10.996 29.557 29.557 0 0 0 1.973 22.824 92.75 92.75 0 0 0 21.39 27.77c2.52 2.129 3.352 3.77 3.294 4.598-.113 1.555-2.48 3.851-4.07 4.844-.118.074-11.301 6.328-37.97 4.5a34.095 34.095 0 0 1-16.343 10.66 30.482 30.482 0 0 1 1.257 3.847c1.012.13 2.012.254 3.063.387 39.805 5.133 56.652-4.668 58.266-5.7 1.11-.663 10.895-6.804 11.742-17.226a21.186 21.186 0 0 0-8.906-18.13 78.164 78.164 0 0 1-17.516-22.91 13.495 13.495 0 0 1-1.012-10.378c.324-.965.727-1.899 1.207-2.797 1.512 2.531 3.195 5.945 4.285 8.156 1.574 3.195 3.067 6.215 4.66 8.797a47.157 47.157 0 0 0 16.758 16.41l26.434 14.934a212.386 212.386 0 0 1 17.54 15.016 79.071 79.071 0 0 0 33.378 17.81 129.833 129.833 0 0 0 36.152 2.323c6.657-.183 14.938-.41 26.191-.41a8 8 0 0 0 0-16zm3.89 93.1a315.085 315.085 0 0 0-89.582-6.371c-1.46.14-2.852.68-4.027 1.558-17.105 12.79-68.172 30.746-68.688 30.926a8.056 8.056 0 0 0-2.301 1.262c-10.062 7.914-38.164 29.38-47.211 33.578-.07.031-.133.063-.195.086a7.22 7.22 0 0 1 2.66-4.348c4.304-3.757 13.613-10.383 21.828-16.227 8.996-6.398 16.762-11.926 20.359-15.223a13.566 13.566 0 0 0 4.41-12.68 14.82 14.82 0 0 0-7.047-10.34 17.142 17.142 0 0 0-13.32-1.14 8.047 8.047 0 0 0-.7.27c-22.694 9.952-59.073 25.823-65.667 28.487a2.224 2.224 0 0 1-1.504-.836 6.468 6.468 0 0 1-1.504-4.128 4.328 4.328 0 0 1 2.215-2.114l59.164-23.527a7.855 7.855 0 0 0 2.121-1.254 15.854 15.854 0 0 0 3.73-17.191c-2.632-9.172-11.207-13.648-21.887-11.363l-54.89 11.69a30.174 30.174 0 0 1-22.856 12.106 23.776 23.776 0 0 0 19.93 4.875l61.148-13.023c1.946-.418 2.989-.176 3.176.129.055.183.098.367.137.547l-55.922 22.238c-.14.058-.285.117-.422.183a20.415 20.415 0 0 0-9.758 9.149 20.025 20.025 0 0 0-1.757 10.215 20.038 20.038 0 0 0 3.59 9.726 18.338 18.338 0 0 0 17.792 8.461c1.477-.168 2.391-.27 60.66-25.805-3.191 2.328-6.863 4.942-10.477 7.512-8.933 6.355-18.172 12.93-23.074 17.21-9.382 8.196-9.875 19.278-5.511 25.993a14.743 14.743 0 0 0 12.44 6.687 18.624 18.624 0 0 0 7.868-1.855c11.602-5.387 42.395-29.273 49.32-34.695 8.094-2.879 50.91-18.422 69.77-31.371a306.501 306.501 0 0 1 82.457 6.21 8.003 8.003 0 0 0 9.566-6.042 8.003 8.003 0 0 0-6.043-9.567zM9.762 272.29a305.867 305.867 0 0 1 82.457-6.21c18.859 12.948 61.676 28.491 69.77 31.37 6.925 5.422 37.719 29.31 49.324 34.7a18.648 18.648 0 0 0 7.863 1.85 14.742 14.742 0 0 0 12.441-6.687c4.363-6.715 3.871-17.797-5.512-25.988-4.902-4.285-14.14-10.859-23.074-17.215-3.617-2.574-7.289-5.183-10.477-7.511 58.27 25.535 59.184 25.637 60.66 25.805a18.339 18.339 0 0 0 17.793-8.46 20.038 20.038 0 0 0 3.59-9.728c.32-3.5-.285-7.023-1.758-10.215a20.415 20.415 0 0 0-9.757-9.148c-.137-.067-.282-.125-.422-.184l-55.95-22.25c.04-.23.087-.473.141-.727a5.844 5.844 0 0 1 3.196.063l61.152 13.023c8.05 1.727 20.789-1.145 23.754-10.98a20.466 20.466 0 0 0-1.34-16.199 25.336 25.336 0 0 0-15.023-11.25l-60.168-16.754 52.004-7.43a20.413 20.413 0 0 0 14.215-8.773 20.792 20.792 0 0 0 2.52-14.06 20.805 20.805 0 0 0-7.153-12.362 20.014 20.014 0 0 0-12.57-3.797c-6.836.2-22.445 1.066-50.176 4.648-33.926 4.38-47.812-3.449-48-3.558-1.293-.774-3.883-3.168-4.016-4.801-.085-1.055 1.176-2.82 3.29-4.61a92.806 92.806 0 0 0 21.398-27.77 29.557 29.557 0 0 0 1.964-22.831 34.857 34.857 0 0 0-6.078-10.992 12.565 12.565 0 0 0-11.363-5.184c-8.394.957-12.848 9.988-17.566 19.551-1.402 2.848-2.726 5.535-3.926 7.477a32.34 32.34 0 0 1-11.008 10.879l-26.78 15.129a7.68 7.68 0 0 0-.54.332A195.336 195.336 0 0 0 95 148.103a63.739 63.739 0 0 1-25.816 13.91A114.657 114.657 0 0 1 36.758 164c-6.75-.188-15.152-.418-26.629-.418a8 8 0 0 0 0 16c11.254 0 19.535.226 26.191.41a130.03 130.03 0 0 0 36.22-2.336 79.094 79.094 0 0 0 33.311-17.797 211.13 211.13 0 0 1 17.535-15.012l26.172-14.793a47.214 47.214 0 0 0 17.023-16.55c1.594-2.587 3.086-5.606 4.66-8.802 1.09-2.21 2.778-5.629 4.29-8.16.472.899.875 1.832 1.199 2.793 1.07 3.457.71 7.2-1.004 10.387a78.23 78.23 0 0 1-17.523 22.91 21.182 21.182 0 0 0-8.902 18.13 24.462 24.462 0 0 0 11.562 17.116c1.793 1.133 18.637 10.953 58.445 5.809 27.047-3.492 42.055-4.332 48.594-4.524a5.17 5.17 0 0 1 2.406.504 5.692 5.692 0 0 1 .98 4.903 4.495 4.495 0 0 1-3.132 1.757l-62.035 8.86c-7.016 1.023-14.293 6.054-13.7 14.668a13.385 13.385 0 0 0 9.895 11.863l71.984 20.043a9.753 9.753 0 0 1 5.297 3.554c.5.977.578 2.114.223 3.153a9.644 9.644 0 0 1-5.286.66l-61.156-13.023c-10.664-2.281-19.254 2.191-21.887 11.363a15.856 15.856 0 0 0-.734 9.16 15.853 15.853 0 0 0 4.469 8.031c.637.528 1.351.95 2.12 1.254l59.165 23.527a4.327 4.327 0 0 1 2.215 2.114 6.49 6.49 0 0 1-1.504 4.128c-.371.47-.91.77-1.504.836-6.594-2.664-42.973-18.535-65.668-28.488a8.046 8.046 0 0 0-.7-.27 17.125 17.125 0 0 0-13.32 1.141 14.82 14.82 0 0 0-7.046 10.34 13.57 13.57 0 0 0 4.418 12.688c3.59 3.29 11.355 8.817 20.352 15.215 8.215 5.844 17.523 12.47 21.828 16.23a7.21 7.21 0 0 1 2.66 4.344c-.062-.023-.125-.054-.191-.082-9.047-4.203-37.148-25.664-47.215-33.582a8.108 8.108 0 0 0-2.301-1.261c-.516-.18-51.582-18.137-68.688-30.926a8.003 8.003 0 0 0-4.027-1.56 315.51 315.51 0 0 0-89.582 6.372 8.003 8.003 0 0 0-6.043 9.566 8.003 8.003 0 0 0 9.566 6.043z"/>
</svg>
