<svg xmlns="http://www.w3.org/2000/svg" viewBox="39.999 31.999 429.415 448">
  <path d="M160 112h96c4.426 0 8-3.574 8-8s-3.574-8-8-8h-96c-10.488.168-10.535 15.824 0 16zm-64 56h224c10.441-.152 10.574-15.824 0-16H96c-10.441.152-10.574 15.824 0 16zm0 40h224c10.441-.152 10.574-15.824 0-16H96c-10.441.152-10.574 15.824 0 16zm0 40h160c4.426 0 8-3.574 8-8s-3.574-8-8-8H96c-10.465.16-10.559 15.824 0 16zm0 48h195.52c10.457-.152 10.566-15.824 0-16H96c-10.457.152-10.566 15.824 0 16zm108.96 32c0-4.426-3.574-8-8-8H96c-4.426 0-8 3.574-8 8s3.574 8 8 8h100.96c4.426 0 8-3.574 8-8z"/>
  <path d="M468.59 155.14c-2.078-11.512-16.152-17.281-25.031-22.566-11.039-6.68-26.566-2.527-32.793 8.785l-34.777 60.23V40c0-4.426-3.574-8-8-8H47.999a7.99 7.99 0 0 0-8 8v432c0 4.426 3.574 8 8 8h320c4.426 0 8-3.574 8-8V329.57l90.191-156.21a23.884 23.884 0 0 0 2.398-18.215zm-39.113-9.512c4.586-1.847 13.535 5.64 19.93 8.809 3.77 2.062 5.152 7.246 2.922 10.922l-8 13.855-27.703-16 8-13.855a7.966 7.966 0 0 1 4.848-3.727zm-100.04 232.57-27.184 15.098-.512-31.098 106.89-185.14 27.703 16-106.89 185.14zm30.551 85.81H55.998V47.997h304v181.29l-73.223 126.83a7.97 7.97 0 0 0-1.07 4.136l.785 46.641c-.078 5.848 6.848 9.863 11.879 6.856l40.785-22.641a8.005 8.005 0 0 0 3.047-2.993l17.809-30.84v106.72z"/>
  <path d="M259.71 405.73c-13.047 1.633-27.098 2.137-30.871 1.336-3.04-8.215-3.023-20.992-13.48-23.633-10.465-2.39-16.535 8.824-22.832 15.879-13.266-29.391-29.449-23.68-44.77 11.12-4.078 9.688 10.238 16.024 14.641 6.466 3.29-7.457 7.871-15.191 10.992-18.848 11.809 24.016 21.648 25.64 37.512 4.097 1.71 6.762 2.922 14.543 8.793 18.273 10.121 5.247 29.77 2.434 42.008 1.184 10.328-1.465 8.566-16.984-2-15.871z"/>
</svg>
