<?xml version="1.0" standalone="no"?>
<!DOCTYPE svg PUBLIC "-//W3C//DTD SVG 20010904//EN"
 "http://www.w3.org/TR/2001/REC-SVG-20010904/DTD/svg10.dtd">
<svg version="1.0" xmlns="http://www.w3.org/2000/svg"
 width="1496.000000pt" height="1496.000000pt" viewBox="0 0 1496.000000 1496.000000"
 preserveAspectRatio="xMidYMid meet">
<metadata>
Created by potrace 1.14, written by Peter Selinger 2001-2017
</metadata>
<g transform="translate(0.000000,1496.000000) scale(0.100000,-0.100000)"
fill="#000000" stroke="none">
<path d="M7168 14955 c-2 -2 -46 -6 -98 -9 -170 -9 -298 -21 -360 -31 -14 -2
-54 -7 -90 -10 -36 -4 -87 -11 -113 -16 -26 -5 -51 -8 -55 -7 -4 1 -20 -1 -37
-5 -49 -10 -108 -19 -137 -21 -16 0 -28 -4 -28 -8 0 -4 -8 -7 -17 -7 -24 1
-58 -6 -178 -31 -55 -12 -109 -24 -120 -25 -45 -8 -237 -59 -380 -102 -66 -19
-127 -36 -135 -38 -8 -2 -28 -9 -45 -15 -16 -6 -37 -13 -45 -15 -26 -6 -191
-65 -315 -113 -66 -25 -123 -45 -127 -44 -5 1 -8 -2 -8 -8 0 -5 -6 -10 -14
-10 -7 0 -35 -10 -62 -22 -27 -12 -52 -23 -56 -24 -5 -1 -11 -3 -15 -4 -5 -1
-11 -2 -15 -1 -5 0 -8 -3 -8 -9 0 -5 -4 -10 -10 -10 -17 0 -444 -204 -460
-220 -3 -3 -20 -13 -38 -22 -113 -59 -187 -102 -190 -110 -2 -4 -8 -8 -13 -8
-8 0 -54 -26 -144 -81 -89 -55 -380 -252 -383 -260 -2 -5 -10 -9 -18 -9 -8 0
-14 -4 -14 -9 0 -5 -8 -12 -17 -15 -10 -3 -33 -20 -50 -36 -18 -17 -33 -29
-33 -26 0 3 -8 -1 -17 -8 -32 -26 -100 -80 -133 -106 -18 -14 -37 -30 -44 -35
-6 -6 -24 -21 -41 -34 -39 -30 -130 -109 -167 -143 -16 -16 -30 -28 -33 -28
-5 0 -93 -82 -202 -188 l-94 -93 23 -20 c39 -33 285 -279 279 -279 -3 0 8 -9
24 -20 17 -11 27 -20 24 -20 -5 0 167 -174 186 -188 6 -4 29 -28 53 -54 23
-26 42 -44 42 -40 0 4 9 -6 20 -23 11 -16 20 -27 20 -23 0 3 24 -19 53 -49 71
-75 117 -118 127 -118 6 0 88 74 253 230 26 23 164 138 280 231 9 8 52 40 95
71 42 31 79 61 80 65 2 4 8 8 13 8 9 0 66 37 79 50 14 15 210 140 219 140 6 0
11 5 11 10 0 6 7 10 15 10 8 0 15 5 15 10 0 6 5 10 11 10 6 0 23 8 37 19 33
22 323 182 337 185 6 1 21 8 35 16 26 15 101 52 110 55 3 1 37 16 75 34 39 18
108 48 155 67 47 20 99 41 115 49 38 17 128 49 230 83 44 14 83 30 87 36 4 6
10 7 13 4 4 -4 19 -2 34 4 14 5 71 23 126 39 55 16 114 33 131 39 16 5 50 14
75 19 24 5 107 24 184 41 77 17 154 33 170 36 37 5 70 12 70 14 0 1 50 8 110
14 17 2 30 4 30 6 0 1 11 3 25 5 14 1 45 5 70 9 25 3 77 9 115 12 39 3 72 7
75 9 5 3 228 17 305 19 17 1 33 5 37 11 5 7 8 7 8 0 0 -6 22 -9 53 -8 64 3
230 5 237 3 3 -1 59 -3 125 -5 196 -7 345 -20 522 -45 38 -5 91 -12 118 -16
28 -3 59 -8 70 -10 11 -3 37 -7 58 -10 43 -7 70 -12 77 -14 3 -1 10 -3 15 -5
6 -1 12 -3 15 -4 3 -1 19 -4 35 -6 28 -4 64 -11 75 -15 3 -1 9 -2 14 -1 4 1
23 -3 41 -9 18 -6 42 -13 54 -15 26 -6 45 -11 96 -23 43 -11 252 -70 273 -77
7 -2 14 -5 17 -5 6 -1 206 -70 225 -77 8 -3 20 -7 25 -9 39 -9 267 -104 415
-171 72 -33 292 -144 350 -177 25 -14 63 -35 85 -46 22 -11 49 -26 60 -33 11
-6 80 -50 155 -96 74 -46 136 -88 138 -92 2 -5 10 -9 18 -9 8 0 14 -4 14 -10
0 -5 7 -10 15 -10 8 0 15 -4 15 -9 0 -5 8 -12 19 -16 10 -3 31 -17 45 -30 14
-13 26 -22 26 -19 0 4 66 -42 80 -56 3 -3 34 -27 70 -54 36 -27 73 -58 83 -68
10 -10 21 -18 26 -18 4 0 17 -9 30 -21 12 -11 48 -42 79 -68 31 -27 70 -60 85
-75 15 -14 30 -26 31 -26 2 0 26 -21 53 -47 27 -27 77 -75 111 -107 l61 -60
60 57 c33 31 59 57 57 57 -1 0 91 92 203 205 113 113 206 205 206 205 1 0 74
73 162 162 l161 161 -68 66 c-96 93 -187 178 -255 236 -31 28 -72 63 -89 79
-17 16 -47 40 -66 55 -19 14 -43 34 -52 45 -10 10 -18 16 -18 12 0 -4 -11 3
-25 16 -34 32 -37 35 -176 138 -68 51 -127 98 -131 104 -4 6 -8 7 -8 2 0 -5
-10 0 -22 11 -26 22 -296 201 -343 227 -37 20 -68 39 -75 46 -3 3 -16 11 -29
18 -13 8 -40 23 -60 34 -39 22 -100 56 -169 94 -23 13 -54 31 -67 40 -14 9
-25 13 -25 9 0 -3 -12 2 -27 13 -36 24 -331 166 -358 172 -5 1 -27 11 -48 21
-89 46 -565 228 -637 244 -8 2 -16 4 -17 5 -2 2 -7 4 -13 5 -5 1 -12 4 -15 5
-3 1 -8 3 -12 4 -34 9 -101 28 -113 32 -8 3 -17 6 -20 6 -3 1 -32 10 -65 20
-54 16 -283 75 -328 84 -10 2 -26 5 -35 8 -9 3 -33 8 -52 12 -45 8 -65 12 -65
14 0 1 -9 3 -20 4 -11 2 -40 7 -65 11 -25 4 -54 9 -65 11 -11 1 -20 3 -20 4 0
2 -34 9 -80 16 -58 8 -76 11 -110 17 -16 3 -52 8 -80 12 -27 3 -68 8 -90 11
-22 3 -56 7 -75 8 -19 2 -53 6 -75 9 -22 4 -83 10 -135 13 -52 4 -108 8 -125
10 -38 5 -753 13 -757 9z"/>
<path d="M7449 12576 c-2 -2 -69 -7 -149 -9 -80 -3 -145 -6 -145 -7 0 -1 -29
-3 -65 -5 -61 -4 -95 -8 -180 -20 -19 -2 -51 -7 -70 -9 -74 -10 -125 -19 -175
-29 -11 -2 -51 -10 -90 -17 -38 -7 -76 -18 -84 -24 -12 -9 -13 -8 -6 4 7 12 6
13 -6 4 -8 -6 -32 -15 -54 -19 -22 -5 -46 -9 -53 -11 -58 -12 -312 -90 -480
-149 -7 -2 -15 -4 -18 -4 -4 0 -10 -3 -13 -8 -3 -4 -24 -14 -46 -22 -22 -7
-62 -23 -90 -36 -27 -12 -75 -33 -105 -46 -160 -70 -453 -230 -567 -310 -23
-16 -46 -29 -52 -29 -5 0 -15 -8 -20 -17 -6 -10 -11 -13 -11 -8 0 7 -3 7 -8 0
-4 -5 -36 -30 -72 -54 -36 -25 -67 -48 -70 -51 -3 -3 -21 -17 -40 -30 -19 -13
-40 -29 -46 -35 -7 -5 -24 -19 -39 -29 -14 -11 -36 -28 -48 -39 -12 -11 -42
-36 -67 -56 -57 -47 -121 -104 -182 -163 -26 -27 -51 -48 -54 -48 -3 0 -14
-10 -24 -22 l-18 -23 164 -164 c90 -90 164 -168 164 -172 0 -5 4 -9 9 -9 7 0
194 -183 268 -262 12 -12 71 -72 132 -131 l109 -109 64 59 c35 32 81 74 102
93 21 19 44 40 50 45 9 9 80 64 111 87 6 4 24 18 40 32 17 13 68 49 115 80 47
30 90 60 97 66 7 5 16 10 21 10 5 0 15 7 22 15 7 8 16 13 20 10 5 -3 10 -2 12
3 10 24 372 204 488 242 14 5 69 24 123 44 53 19 97 32 97 29 0 -3 6 -1 13 5
10 8 37 16 87 27 3 1 15 4 28 9 12 4 34 9 50 11 15 2 27 4 27 5 0 3 39 12 61
14 11 1 24 5 30 8 5 3 26 9 47 12 20 3 52 8 70 11 17 3 48 8 67 11 19 3 49 7
65 9 17 2 30 4 30 5 0 2 28 4 165 14 114 9 545 5 545 -4 0 -2 38 -8 100 -14
55 -6 73 -9 138 -20 12 -2 40 -7 62 -11 22 -3 48 -8 57 -11 10 -3 28 -7 40
-10 30 -5 63 -13 86 -19 9 -2 42 -11 72 -19 97 -26 187 -53 209 -65 11 -7 21
-9 21 -5 0 3 6 2 13 -3 6 -6 30 -16 52 -23 22 -7 56 -20 75 -28 19 -9 37 -16
40 -17 3 -1 19 -8 35 -15 17 -7 32 -14 35 -15 8 -2 179 -88 245 -124 67 -35
81 -44 142 -83 23 -16 46 -28 52 -28 6 0 11 -3 11 -8 0 -4 16 -16 35 -26 19
-11 35 -23 35 -28 0 -5 5 -6 10 -3 6 3 10 2 10 -2 0 -5 12 -16 28 -25 15 -9
37 -25 49 -35 12 -10 34 -27 49 -38 62 -45 192 -156 266 -228 l49 -48 44 38
c24 21 44 43 45 48 0 6 19 24 40 40 21 17 39 33 40 38 0 7 37 47 43 47 5 0
237 233 237 237 0 5 39 43 44 43 8 0 76 72 76 80 0 5 4 10 10 12 9 3 152 141
233 225 37 38 37 39 18 59 -33 34 -235 217 -265 240 -25 20 -122 100 -134 111
-7 7 -26 20 -42 30 -17 9 -30 21 -30 25 0 4 -6 8 -13 8 -7 0 -19 9 -27 20 -8
11 -19 20 -25 20 -6 0 -26 13 -45 30 -19 16 -40 29 -47 30 -6 0 -13 3 -15 8
-1 4 -28 23 -58 42 -30 19 -57 37 -60 40 -3 3 -18 12 -34 20 -56 29 -66 35
-66 42 0 5 -6 8 -14 8 -7 0 -19 6 -25 14 -7 8 -26 18 -42 21 -16 4 -29 10 -29
14 0 4 -30 23 -67 41 -38 19 -69 38 -71 42 -2 4 -8 8 -14 8 -5 0 -49 19 -97
41 -118 56 -262 120 -283 124 -10 2 -32 10 -50 19 -32 14 -173 66 -193 70 -5
1 -55 17 -110 34 -173 54 -445 117 -590 137 -23 3 -52 7 -65 10 -54 10 -217
28 -272 29 -27 1 -48 3 -48 6 0 3 -77 6 -172 8 -95 2 -175 5 -179 7 -3 3 -8 3
-10 1z"/>
<path d="M7345 10182 c-2 -2 -28 -6 -57 -8 -73 -5 -127 -11 -168 -19 -19 -4
-45 -8 -57 -8 -13 -1 -23 -4 -23 -7 0 -3 -8 -6 -17 -7 -19 -1 -53 -8 -83 -18
-10 -3 -27 -7 -37 -10 -27 -5 -173 -55 -213 -72 -276 -121 -496 -263 -677
-441 l-24 -24 101 -101 c55 -55 100 -105 100 -110 0 -6 2 -8 5 -5 3 2 148
-138 322 -313 l317 -317 50 42 c140 118 302 192 465 213 98 12 250 8 321 -10
8 -2 29 -7 45 -11 17 -4 37 -10 45 -13 8 -3 22 -7 31 -9 8 -2 51 -21 95 -43
71 -36 92 -49 142 -91 6 -6 12 -8 12 -5 0 3 19 -13 42 -34 l41 -40 28 22 c15
12 28 25 28 30 1 9 39 47 49 47 4 1 21 19 37 40 17 21 33 39 37 40 7 0 78 70
78 76 0 5 39 44 44 44 7 0 181 180 184 190 2 6 10 10 17 10 8 0 17 9 20 20 3
11 12 21 18 21 7 1 79 71 161 155 l149 154 -61 56 c-34 31 -90 78 -124 104
-35 27 -70 55 -78 62 -20 17 -167 109 -205 128 -16 8 -32 17 -35 20 -3 3 -18
11 -35 19 -16 7 -46 22 -65 32 -80 40 -276 108 -400 137 -105 25 -164 35 -290
48 -67 7 -329 12 -335 6z"/>
<path d="M7472 8058 c-7 -7 -12 -18 -12 -25 0 -7 -4 -13 -9 -13 -5 0 -12 -11
-15 -25 -4 -14 -11 -25 -16 -25 -6 0 -10 -5 -10 -11 0 -6 -9 -24 -21 -40 -11
-16 -17 -29 -13 -29 4 0 0 -8 -9 -18 -8 -9 -20 -28 -26 -42 -14 -31 -33 -63
-44 -71 -5 -3 -8 -8 -8 -10 2 -13 -13 -49 -20 -49 -5 0 -9 -4 -9 -10 0 -5 -18
-39 -40 -75 -22 -36 -41 -71 -43 -78 -1 -6 -8 -18 -14 -25 -7 -7 -13 -20 -13
-28 0 -8 -4 -14 -10 -14 -5 0 -10 -4 -10 -9 0 -5 -40 -80 -90 -166 -49 -86
-90 -161 -90 -165 0 -5 -3 -10 -7 -12 -5 -1 -16 -19 -25 -38 -10 -19 -31 -57
-48 -85 -16 -27 -33 -57 -37 -65 -4 -8 -32 -60 -63 -115 -31 -55 -70 -122 -85
-150 -16 -27 -39 -68 -51 -90 -13 -22 -38 -67 -55 -100 -17 -33 -34 -62 -38
-65 -3 -3 -13 -18 -21 -35 -8 -16 -23 -42 -33 -57 -10 -16 -15 -28 -10 -28 4
0 3 -4 -3 -8 -6 -4 -25 -34 -43 -67 -18 -33 -51 -90 -72 -127 -21 -36 -39 -71
-39 -77 0 -6 -4 -11 -10 -11 -5 0 -10 -4 -10 -9 0 -8 -83 -160 -126 -231 -9
-14 -21 -37 -27 -52 -6 -16 -15 -28 -19 -28 -4 0 -8 -7 -8 -15 0 -8 -5 -15
-12 -15 -6 0 -9 -3 -5 -6 3 -3 -5 -24 -19 -45 -13 -21 -24 -43 -24 -49 0 -5
-4 -10 -9 -10 -5 0 -13 -10 -16 -21 -4 -12 -22 -47 -40 -78 -60 -103 -96 -166
-113 -201 -9 -19 -19 -37 -22 -40 -4 -4 -18 -29 -64 -115 -6 -11 -13 -22 -16
-25 -6 -6 -35 -58 -81 -145 -17 -33 -34 -62 -38 -65 -3 -3 -19 -30 -35 -60
-39 -75 -40 -76 -62 -33 -10 21 -22 40 -25 43 -3 3 -12 20 -20 38 -8 17 -18
32 -22 32 -5 0 -5 5 -2 10 3 6 1 10 -5 10 -6 0 -8 5 -5 10 3 6 2 10 -3 10 -5
0 -17 18 -27 40 -10 22 -23 40 -28 40 -6 0 -8 3 -4 6 3 3 -11 34 -32 67 -21
34 -44 77 -52 95 -7 17 -17 32 -21 32 -5 0 -8 4 -8 9 0 5 -22 48 -50 96 -28
48 -50 90 -50 95 0 5 -3 10 -7 12 -5 2 -17 21 -29 43 -45 87 -87 161 -100 176
-8 9 -12 18 -9 21 3 3 -1 11 -10 18 -8 7 -15 18 -15 24 0 7 -6 18 -12 25 -7 6
-13 15 -13 19 -1 9 -26 55 -34 62 -3 3 -12 17 -20 33 -8 15 -17 27 -20 27 -7
0 -142 -243 -154 -277 -5 -13 -13 -23 -18 -23 -5 0 -9 -4 -9 -10 0 -5 -31 -64
-70 -131 -38 -66 -70 -123 -70 -125 0 -2 -20 -38 -45 -80 -25 -41 -45 -80 -45
-85 0 -5 -5 -9 -11 -9 -5 0 -8 -4 -4 -9 3 -5 1 -12 -4 -15 -5 -3 -23 -34 -41
-68 -18 -35 -39 -70 -46 -79 -8 -8 -14 -18 -14 -22 0 -3 -13 -28 -28 -54 -16
-26 -44 -77 -64 -113 -68 -123 -91 -165 -115 -202 -12 -21 -23 -40 -23 -43 0
-2 -18 -34 -39 -69 -22 -35 -37 -67 -34 -70 4 -3 1 -6 -5 -6 -7 0 -12 -4 -12
-9 0 -5 -43 -85 -96 -177 -53 -93 -105 -183 -115 -201 -10 -17 -15 -34 -12
-37 4 -3 2 -6 -4 -6 -5 0 -20 -19 -32 -42 -12 -24 -32 -61 -45 -83 -38 -68
-67 -118 -99 -175 -17 -30 -34 -56 -39 -58 -4 -2 -8 -12 -8 -22 0 -10 -5 -22
-10 -25 -6 -4 -17 -21 -25 -38 -8 -18 -27 -54 -43 -82 -16 -27 -35 -61 -43
-75 -8 -14 -20 -33 -28 -42 -8 -10 -11 -18 -7 -18 4 0 0 -7 -8 -16 -9 -8 -16
-22 -16 -30 0 -8 -3 -14 -8 -14 -4 0 -13 -15 -21 -33 -8 -17 -17 -34 -21 -37
-3 -3 -16 -25 -29 -50 -12 -25 -32 -61 -43 -80 -41 -69 -78 -136 -95 -170 -10
-19 -21 -36 -25 -38 -5 -2 -8 -8 -8 -13 0 -5 -11 -27 -25 -49 -14 -21 -26 -45
-27 -52 -2 -7 -11 -21 -20 -32 -10 -11 -18 -26 -18 -33 0 -7 -5 -13 -11 -13
-5 0 -8 -4 -4 -9 3 -5 1 -12 -5 -16 -6 -3 -17 -21 -25 -38 -8 -18 -30 -59 -50
-92 -20 -33 -38 -68 -42 -77 -3 -10 -9 -18 -14 -18 -5 0 -9 -5 -9 -11 0 -6
-15 -37 -34 -68 -18 -31 -47 -81 -63 -111 -56 -101 -114 -205 -124 -220 -5 -8
-16 -28 -24 -45 -9 -16 -27 -48 -40 -70 -14 -22 -32 -56 -42 -75 -9 -19 -19
-37 -22 -40 -4 -3 -14 -19 -23 -36 l-18 -32 33 -24 c17 -13 59 -42 92 -63 33
-22 62 -43 63 -47 2 -5 9 -8 16 -8 7 0 25 -11 40 -25 14 -13 28 -23 31 -22 2
1 14 -6 25 -16 11 -9 23 -17 26 -17 8 0 69 -44 72 -52 2 -5 10 -8 18 -8 8 0
14 -4 14 -9 0 -5 13 -14 30 -21 16 -7 30 -15 30 -19 0 -3 20 -17 45 -30 25
-13 45 -27 45 -31 0 -4 11 -11 24 -14 14 -3 31 -12 38 -19 15 -13 27 -20 116
-69 31 -17 75 -42 97 -54 22 -12 92 -49 155 -81 63 -32 117 -61 118 -65 2 -5
7 -8 12 -8 4 0 70 -30 146 -66 119 -56 499 -223 544 -239 12 -4 46 -17 65 -25
19 -8 54 -21 65 -25 3 -1 16 -6 30 -12 14 -5 54 -20 90 -32 36 -13 74 -27 85
-32 49 -22 409 -138 416 -133 4 2 10 0 13 -5 3 -4 20 -12 38 -16 18 -4 38 -9
43 -11 45 -14 125 -36 150 -41 17 -3 33 -10 37 -16 4 -7 8 -9 8 -6 0 6 55 -7
210 -47 41 -10 329 -74 355 -78 17 -2 31 -5 33 -6 3 -3 11 -5 65 -14 27 -4 59
-9 70 -12 69 -14 114 -21 172 -29 17 -2 44 -6 60 -10 17 -4 46 -8 65 -10 75
-9 125 -16 150 -21 14 -3 43 -6 65 -6 22 0 44 -3 49 -6 5 -3 27 -6 50 -8 44
-2 156 -12 221 -19 134 -13 329 -20 615 -20 383 0 601 11 835 41 25 3 62 7 83
9 20 1 57 6 82 9 25 4 61 9 80 11 19 2 49 6 65 9 55 9 164 27 185 30 8 1 31 6
50 10 19 4 44 9 55 11 11 2 20 4 20 5 0 1 9 3 20 5 56 8 92 15 115 20 14 3 43
10 65 15 68 15 87 19 195 46 116 29 251 67 290 82 14 5 28 10 33 10 36 4 77
16 77 22 0 5 8 9 18 9 18 0 37 4 62 14 8 3 67 24 130 46 202 69 275 96 278
104 2 4 14 7 27 7 13 0 26 4 29 9 3 4 27 16 53 25 26 10 62 24 80 32 17 8 36
14 42 14 6 0 11 5 11 12 0 6 3 9 6 6 5 -6 51 13 229 97 104 48 224 108 295
146 8 5 49 26 90 48 41 21 116 62 165 91 130 76 158 92 180 104 11 6 31 19 45
27 14 9 59 38 100 64 94 60 393 258 400 265 3 3 59 41 125 85 172 113 160 94
113 178 -22 40 -53 95 -69 124 -46 84 -54 98 -59 103 -3 3 -11 16 -17 30 -7
14 -31 57 -53 95 -23 39 -46 82 -53 98 -6 15 -14 27 -18 27 -4 0 -13 15 -20
33 -7 17 -30 60 -51 94 -21 35 -38 67 -38 73 0 5 -4 10 -10 10 -5 0 -10 5 -10
10 0 6 -27 58 -60 116 -33 58 -60 110 -60 115 0 5 -3 9 -8 9 -4 0 -14 15 -21
32 -8 18 -24 49 -36 68 -47 75 -179 315 -177 323 1 4 -3 7 -8 7 -6 0 -10 7
-10 15 0 8 -4 15 -10 15 -5 0 -10 5 -10 11 0 7 -19 44 -41 83 -52 88 -66 113
-114 201 -22 39 -43 72 -47 73 -4 2 -8 12 -8 23 0 10 -4 19 -10 19 -5 0 -10 9
-10 20 0 11 -4 20 -8 20 -4 0 -21 26 -37 58 -17 31 -32 59 -35 62 -8 8 -38 60
-62 110 -13 25 -26 47 -29 50 -3 3 -18 31 -34 63 -16 31 -33 57 -37 57 -4 0
-8 5 -8 10 0 6 -27 58 -60 117 -33 58 -60 109 -60 114 0 5 -4 9 -9 9 -5 0 -11
8 -14 18 -3 9 -21 44 -40 77 -18 33 -48 86 -66 119 -18 32 -46 81 -62 108 -16
27 -29 51 -29 54 0 3 -8 18 -19 32 -18 27 -95 166 -115 209 -6 13 -14 23 -18
23 -5 0 -8 4 -8 9 0 5 -22 48 -50 96 -27 48 -50 91 -50 96 0 5 -5 9 -11 9 -5
0 -8 4 -4 9 3 5 1 12 -4 16 -5 3 -16 18 -24 33 -32 62 -81 149 -99 174 -10 14
-18 29 -18 33 0 3 -21 43 -48 88 -26 45 -54 96 -62 112 -8 17 -17 32 -20 35
-3 3 -16 25 -29 50 -13 25 -49 87 -79 138 -62 107 -52 109 -123 -23 -23 -44
-46 -81 -51 -83 -4 -2 -8 -7 -8 -11 0 -8 -49 -99 -109 -201 -18 -30 -35 -63
-38 -72 -3 -10 -9 -18 -14 -18 -5 0 -9 -9 -9 -19 0 -11 -4 -21 -8 -23 -5 -1
-22 -28 -39 -58 -16 -30 -39 -71 -50 -90 -11 -19 -37 -66 -58 -105 -21 -38
-42 -72 -45 -75 -7 -6 -22 -43 -20 -49 1 -2 -3 -7 -8 -10 -5 -3 -19 -25 -30
-47 -12 -23 -37 -67 -56 -99 l-34 -56 -30 53 c-16 29 -39 69 -49 88 -26 46
-200 354 -230 405 -12 22 -28 51 -35 65 -7 14 -20 37 -30 51 -9 14 -15 29 -11
33 3 3 2 6 -3 6 -5 0 -21 21 -34 48 -14 26 -27 49 -30 52 -3 3 -11 16 -17 30
-7 14 -25 48 -41 75 -35 60 -54 94 -113 199 -24 43 -53 94 -65 115 -11 20 -34
61 -51 91 -17 30 -47 84 -67 118 -20 35 -36 68 -36 73 0 5 -3 9 -8 9 -4 0 -13
15 -21 33 -8 17 -27 51 -43 75 -15 24 -28 45 -28 48 0 3 -38 72 -84 152 -45
81 -94 167 -108 192 -14 25 -58 104 -99 175 -40 72 -73 133 -71 138 1 4 -2 7
-7 7 -5 0 -15 16 -22 35 -7 19 -17 35 -21 35 -4 0 -8 4 -8 8 0 5 -63 121 -141
258 -78 137 -154 272 -169 299 -15 28 -41 74 -58 103 -17 28 -29 52 -26 52 3
0 -2 7 -10 16 -9 8 -16 22 -16 30 0 8 -4 14 -9 14 -5 0 -11 8 -14 18 -3 9 -20
42 -37 72 -18 30 -35 61 -39 68 -5 9 -10 9 -19 0z"/>
</g>
</svg>
